<svg xmlns="http://www.w3.org/2000/svg" width="134" height="195" viewBox="0 0 134 195" fill="none"><path d="M133.862 71.1434C133.862 110.096 102.285 141.673 63.3325 141.673C24.3799 141.673 0.191406 110.096 0.191406 71.1433C0.191406 32.1907 7.71518 0 46.6678 0C85.6205 0 133.862 32.1907 133.862 71.1434Z" fill="#FFA9D9"></path><path fill-rule="evenodd" clip-rule="evenodd" d="M11.6837 142.111C8.71369 143.441 5.75859 144.741 2.82359 146.156C0.338588 147.356 -0.701363 150.351 0.498637 152.836C1.69864 155.321 4.68868 156.361 7.17368 155.161C10.0237 153.786 12.8937 152.526 15.7787 151.231C18.2987 150.101 19.4236 147.141 18.2936 144.621C17.1636 142.106 14.2037 140.981 11.6837 142.111Z" fill="#FFA9D9"></path><path fill-rule="evenodd" clip-rule="evenodd" d="M31.4127 159.571C27.1327 168.841 23.3225 178.321 19.2425 187.676C18.1375 190.206 19.2977 193.156 21.8277 194.261C24.3577 195.361 27.3026 194.206 28.4076 191.676C32.4626 182.386 36.2375 172.971 40.4925 163.766C41.6475 161.261 40.5527 158.286 38.0477 157.131C35.5427 155.971 32.5677 157.066 31.4127 159.571Z" fill="#FFA9D9"></path><path fill-rule="evenodd" clip-rule="evenodd" d="M67.748 164.138C69.113 172.623 70.7179 181.088 71.9829 189.588C72.3929 192.313 74.938 194.198 77.668 193.793C80.398 193.383 82.2829 190.838 81.8779 188.108C80.5979 179.573 78.993 171.073 77.623 162.548C77.183 159.823 74.6181 157.968 71.8931 158.408C69.1681 158.843 67.308 161.413 67.748 164.138Z" fill="#FFA9D9"></path></svg>