<svg xmlns="http://www.w3.org/2000/svg" width="125" height="38" viewBox="0 0 125 38" fill="none"><path d="M0 37.8996H18.09V20.9436L15.282 19.3236L18.09 17.7036V0.0996094H0V37.8996ZM6.048 6.14761H12.096V17.4876L6.048 13.9776V6.14761ZM12.096 24.4536V31.8516H6.048V20.9436L12.096 24.4536Z" fill="#1F294C"></path><path d="M21.3047 37.8996H27.3527V20.9436L33.4007 24.4536V37.8996H39.3947V0.0996094H21.3047V37.8996ZM27.3527 13.9776V6.14761H33.4007V17.4876L27.3527 13.9776Z" fill="#1F294C"></path><path d="M42.6094 37.8456H54.7054V37.8996H60.6994V24.0216L54.7054 20.5116V31.7976H48.6574V0.0996094H42.6094V37.8456Z" fill="#1F294C"></path><path d="M69.9621 37.8996V20.8896L76.0101 24.3456V37.8996H82.0581V0.0996094H76.0101V17.3796L69.9621 13.8696V0.0996094H63.9141V37.8996H69.9621Z" fill="#1F294C"></path><path d="M85.3242 37.8996H91.3722V20.9436L97.4202 24.4536V37.8996H103.414V0.0996094H85.3242V37.8996ZM91.3722 13.9776V6.14761H97.4202V17.4876L91.3722 13.9776Z" fill="#1F294C"></path><path d="M106.629 37.8996H124.719V29.3676L118.725 25.8576V31.8516H112.677V20.8356L118.725 24.2916V17.3256L112.677 13.8696V6.14761H118.725V10.6296L124.719 14.1396V0.0996094H106.629V37.8996Z" fill="#1F294C"></path></svg>